<?xml version="1.0" encoding="utf-8"?>
<!-- Generator: Adobe Illustrator 21.0.0, SVG Export Plug-In . SVG Version: 6.00 Build 0)  -->
<svg version="1.1" id="Layer_1" xmlns="http://www.w3.org/2000/svg" xmlns:xlink="http://www.w3.org/1999/xlink" x="0px" y="0px"
	 width="60px" height="70px" viewBox="0 0 60 70" enable-background="new 0 0 60 70" xml:space="preserve">
<path fill-rule="evenodd" fill="#FFFFFF" d="M58,27.3c-1.8-3.9-4-7.1-6.5-9.6c-2.6-2.5-5.1-4.3-7.4-5.4c-2.5-1.2-4.8-2.1-6.9-2.8c-2.2-0.6-3.3-1-3.4-1.1
	c-0.4-2.4-1-4.3-1.8-5.6c-0.9-1.3-2.8-2.1-5.7-2.3c-0.2,0-0.4,0-0.6,0c-1,0-2.1,0.3-3.2,1c-1.3,0.9-1.7,2-2.1,3
	c-2-1-5.5-1.5-7.3-1.1c-2.3,0.5-4,1.9-4.3,4.5c-0.1,0.6-0.1,2.3,0.2,2.9c1.1,2.7,4.5,2.2,6.3,2.8c2.4,0.7,4.6,1.6,4.6,1.8
	c0,1.8-0.5,7.6-1,13.6C14.7,27,8.7,23.2,4.7,15.5c0,0-4,8.8,12.7,17.7c0,0-1.9,9.3,1,15.4c0,0-3.4-2.1-1.8-14.8
	c0,0-11.2-2.6-15.3-15.6c0,0-6.7,10.8,12,19.2c0,0-7.3,0.2-13-9.8c0,0-3.2,8.7,12.3,15c0,0-5.7,0.7-11.5-7.3c0,0,1.5,13,17.5,15.4
	c0.1,1.7,0.2,3.3,0.3,4.7c0.1,0.2,0.1,0.6,0.2,1.1c0,0.5,0.1,0.9,0.4,1.3c0.2,0.4,0.3,0.6,0.4,0.6c-0.6-0.2-2.1-0.9-4.5-2
	c-2.3-1-4-1.6-5.3-1.6c-0.1,0-0.1,0-0.2,0c-0.7,0-1.4,0.3-1.9,1c-0.5,0.6-0.7,1.3-0.7,2c0,0.1,0,0.1,0,0.2c0.1,1.8,2.1,3.1,5.9,6
	c3.7,3,11.5,5.4,16.6,5.5c11.3,0.3,19.4-4.3,24.5-12.1c1.8-2.6,3.2-5.8,4.3-9.4c1-3.6,1.5-7.2,1.5-10.8C60,33.7,59.3,30.3,58,27.3z
	 M49.3,41.5c0,5.2-2,10-6.1,14.5c-4.2,4.7-8.5,4-15.1,4.1c-2.5-0.3-4.5-0.7-5.9-1c1.3-0.2,2.1-0.6,2.5-1.3c0.3-0.7,0.8-2.1,1.4-4.1
	c0.9-3,1.1-4.6,1.4-7.2c7.9,1.9,11.1-3.8,11.1-3.8c-4.3,2.6-6.8,1.2-6.8,1.2c8.5,0.1,8.7-4.6,8.7-4.6c-4.6,3.6-8,2.1-8,2.1
	c10.4-0.3,9.3-6.6,9.3-6.6c-4.4,5.3-10.2,4.3-10.2,4.3c-1.7,6.3-3.7,6.6-3.7,6.6c2.5-2.3,3.4-7,3.4-7c9.6-0.9,9.4-5.8,9.4-5.8
	c-5.5,4.6-11.5,3.4-11.8,3.3c0.4-2.8,0.7-5.7,1.1-8.6c0.7-5.4,1.1-8.1,1.3-8.1c2.1,0,4.7,1.1,7.7,3.3c3.8,2.5,6.4,5.1,7.8,7.8
	c1.4,2.7,2.3,6.2,2.5,10.6C49.3,41.1,49.3,41.3,49.3,41.5z"/>
</svg>
